<?xml version="1.0" standalone="no"?><!DOCTYPE svg PUBLIC "-//W3C//DTD SVG 1.1//EN" "http://www.w3.org/Graphics/SVG/1.1/DTD/svg11.dtd"><svg t="1566606170620" class="icon" viewBox="0 0 1024 1024" version="1.1" xmlns="http://www.w3.org/2000/svg" p-id="1283" xmlns:xlink="http://www.w3.org/1999/xlink" width="200" height="200"><defs><style type="text/css"></style></defs><path d="M938.666667 256c12.8 0 23.466667 6.4 32 14.933333 8.533333 8.533333 10.666667 21.333333 10.666666 34.133334l-17.066666 115.2c-17.066667 113.066667-110.933333 202.666667-224 215.466666l-183.466667 21.333334V960c0 12.8-6.4 25.6-17.066667 34.133333-8.533333 6.4-19.2 8.533333-27.733333 8.533334-4.266667 0-6.4 0-10.666667-2.133334l-426.666666-106.666666c-21.333333-6.4-36.266667-25.6-32-49.066667l128-789.333333c2.133333-14.933333 12.8-29.866667 29.866666-34.133334 14.933333-4.266667 32 0 42.666667 10.666667L379.733333 170.666667H576c53.333333 0 104.533333 25.6 136.533333 68.266666l12.8 17.066667h213.333334z m-59.733334 151.466667l10.666667-66.133334H704c-12.8 0-25.6-6.4-34.133333-17.066666l-25.6-34.133334c-17.066667-21.333333-40.533333-34.133333-68.266667-34.133333H362.666667c-10.666667 0-21.333333-4.266667-29.866667-12.8l-89.6-89.6-108.8 667.733333L469.333333 904.533333V618.666667c0-21.333333 17.066667-40.533333 38.4-42.666667l221.866667-25.6c76.8-6.4 136.533333-66.133333 149.333333-142.933333z" fill="#2F3CF4" p-id="1284"></path><path d="M554.666667 320c-23.466667 0-42.666667 19.2-42.666667 42.666667v21.333333c0 23.466667 19.2 42.666667 42.666667 42.666667s42.666667-19.2 42.666666-42.666667v-21.333333c0-23.466667-19.2-42.666667-42.666666-42.666667" fill="#2F3CF4" p-id="1285"></path></svg>